<svg width="24" height="24" viewBox="0 0 24 24" fill="none" xmlns="http://www.w3.org/2000/svg">
<path d="M13.73 21C13.5542 21.3031 13.3019 21.5547 12.9982 21.7295C12.6946 21.9044 12.3504 21.9965 12 21.9965C11.6496 21.9965 11.3054 21.9044 11.0018 21.7295C10.6982 21.5547 10.4458 21.3031 10.27 21" stroke="#1B1D28" stroke-width="2" stroke-linecap="round" stroke-linejoin="round"/>
<path d="M18.6298 13C18.185 11.3714 17.9729 9.68804 17.9998 8" stroke="#1B1D28" stroke-width="2" stroke-linecap="round" stroke-linejoin="round"/>
<path d="M6.26 6.26001C6.08627 6.82362 5.99861 7.41023 6 8.00001C6 15 3 17 3 17H17" stroke="#1B1D28" stroke-width="2" stroke-linecap="round" stroke-linejoin="round"/>
<path d="M17.9999 8.00011C18.0015 6.91318 17.7079 5.84622 17.1503 4.91321C16.5927 3.98019 15.7921 3.21617 14.834 2.70275C13.876 2.18934 12.7965 1.94581 11.7108 1.99818C10.6251 2.05056 9.57409 2.39686 8.66992 3.00011" stroke="#1B1D28" stroke-width="2" stroke-linecap="round" stroke-linejoin="round"/>
<path d="M1 1L23 23" stroke="#1B1D28" stroke-width="2" stroke-linecap="round" stroke-linejoin="round"/>
</svg>
