<svg width="94" height="43" viewBox="0 0 94 43" fill="none" xmlns="http://www.w3.org/2000/svg">
<path fill-rule="evenodd" clip-rule="evenodd" d="M27.94 36.3111V36.4505C27.94 40.0537 24.98 43 21.36 43C17.76 43 14.8 40.0537 14.8 36.4505V23.2319L27.94 36.3111ZM21.36 0C24.98 0 27.94 2.9463 27.94 6.54954V6.68889L14.8 19.7681V6.54954C14.8 2.9463 17.76 0 21.36 0ZM0 21.5C0 17.8968 2.96 14.9505 6.58 14.9505H13.44V28.0495H6.58C2.96 28.0495 0 25.1032 0 21.5Z" fill="#18B3AB"/>
<path fill-rule="evenodd" clip-rule="evenodd" d="M27.94 8.57924V20.8223H15.64L27.94 8.57924ZM29.28 7.24545C31.74 5.01582 35.58 5.07554 37.96 7.44452C40.4 9.85332 40.4 13.8348 37.96 16.2635L33.36 20.8223H29.28V7.24545ZM33.36 22.176L37.96 26.7547C40.4 29.1635 40.4 33.145 37.96 35.5737C35.58 37.9227 31.74 37.9825 29.28 35.7528V22.176H33.36ZM27.94 22.176V34.419L15.64 22.176H27.94Z" fill="#D1DC05"/>
<path fill-rule="evenodd" clip-rule="evenodd" d="M47.94 7.70464V9.41668L49.76 7.38613C49.86 7.28659 49.92 7.20696 49.98 7.16714C50.06 7.12733 50.14 7.10742 50.24 7.10742C50.36 7.10742 50.48 7.14724 50.56 7.22687C50.64 7.3065 50.68 7.40603 50.68 7.52548C50.68 7.68474 50.62 7.82409 50.48 7.96344L49.34 9.09816L50.64 11.0889C50.74 11.2283 50.8 11.3477 50.86 11.4472C50.9 11.5667 50.92 11.6662 50.92 11.7658C50.92 11.8653 50.88 11.9648 50.8 12.0445C50.72 12.1241 50.62 12.1639 50.48 12.1639C50.34 12.1639 50.24 12.1241 50.16 12.0644C50.08 12.0046 50 11.925 49.96 11.8454C49.9 11.7458 49.84 11.6463 49.8 11.5667L48.7 9.77501L47.94 10.5514V11.5468C47.94 11.7658 47.9 11.9051 47.8 12.0046C47.72 12.1042 47.6 12.1639 47.46 12.1639C47.38 12.1639 47.3 12.144 47.24 12.0843C47.16 12.0445 47.1 11.9847 47.06 11.9051C47.04 11.8454 47.02 11.7857 47.02 11.706C47 11.6065 47 11.487 47 11.3477V7.70464C47 7.50557 47.04 7.34631 47.12 7.24677C47.22 7.14724 47.32 7.10742 47.46 7.10742C47.6 7.10742 47.72 7.14724 47.8 7.24677C47.9 7.34631 47.94 7.50557 47.94 7.70464ZM54.78 7.94353H52.68V9.15788H54.62C54.76 9.15788 54.88 9.17779 54.94 9.25742C55.02 9.31714 55.04 9.41668 55.04 9.51622C55.04 9.63566 55.02 9.71529 54.94 9.79492C54.88 9.85464 54.76 9.89446 54.62 9.89446H52.68V11.288H54.86C55 11.288 55.12 11.3278 55.2 11.4074C55.26 11.4671 55.3 11.5667 55.3 11.6861C55.3 11.8056 55.26 11.9051 55.2 11.9648C55.12 12.0445 55 12.0843 54.86 12.0843H52.32C52.12 12.0843 51.98 12.0245 51.88 11.925C51.8 11.8454 51.76 11.6861 51.76 11.4671V7.78427C51.76 7.64492 51.78 7.52548 51.82 7.44585C51.86 7.34631 51.92 7.28659 52 7.24677C52.08 7.20696 52.2 7.18705 52.32 7.18705H54.78C54.94 7.18705 55.04 7.20696 55.12 7.28659C55.2 7.36622 55.22 7.44585 55.22 7.56529C55.22 7.68474 55.2 7.76437 55.12 7.844C55.04 7.90372 54.94 7.94353 54.78 7.94353ZM57.6 11.3477L56.86 8.22224V11.6065C56.86 11.7857 56.82 11.925 56.74 12.0245C56.66 12.1042 56.56 12.1639 56.44 12.1639C56.3 12.1639 56.2 12.1042 56.12 12.0245C56.04 11.925 56 11.7857 56 11.6065V7.72455C56 7.50557 56.06 7.36622 56.16 7.28659C56.26 7.22687 56.4 7.18705 56.58 7.18705H56.88C57.04 7.18705 57.18 7.20696 57.26 7.22687C57.32 7.26668 57.38 7.3264 57.42 7.40603C57.46 7.50557 57.5 7.64492 57.56 7.844L58.22 10.5116L58.9 7.844C58.94 7.64492 58.98 7.50557 59.02 7.40603C59.06 7.3264 59.12 7.26668 59.2 7.22687C59.28 7.20696 59.4 7.18705 59.58 7.18705H59.86C60.04 7.18705 60.18 7.22687 60.28 7.28659C60.38 7.36622 60.44 7.50557 60.44 7.72455V11.6065C60.44 11.7857 60.4 11.925 60.32 12.0245C60.24 12.1042 60.14 12.1639 60 12.1639C59.88 12.1639 59.78 12.1042 59.7 12.0245C59.62 11.925 59.58 11.7857 59.58 11.6065V8.22224L58.84 11.3477C58.8 11.5468 58.76 11.6861 58.72 11.7857C58.7 11.8852 58.64 11.9648 58.56 12.0445C58.48 12.1241 58.36 12.1639 58.22 12.1639C58.12 12.1639 58.02 12.144 57.94 12.0843C57.88 12.0445 57.82 11.9648 57.78 11.8852C57.72 11.8056 57.7 11.7259 57.68 11.6264C57.64 11.5468 57.62 11.4472 57.6 11.3477ZM64.44 7.94353H62.34V9.15788H64.26C64.4 9.15788 64.52 9.17779 64.58 9.25742C64.66 9.31714 64.68 9.41668 64.68 9.51622C64.68 9.63566 64.66 9.71529 64.58 9.79492C64.52 9.85464 64.4 9.89446 64.26 9.89446H62.34V11.288H64.5C64.64 11.288 64.76 11.3278 64.84 11.4074C64.9 11.4671 64.94 11.5667 64.94 11.6861C64.94 11.8056 64.9 11.9051 64.84 11.9648C64.76 12.0445 64.64 12.0843 64.5 12.0843H61.96C61.76 12.0843 61.62 12.0245 61.54 11.925C61.44 11.8454 61.4 11.6861 61.4 11.4671V7.78427C61.4 7.64492 61.42 7.52548 61.46 7.44585C61.5 7.34631 61.56 7.28659 61.64 7.24677C61.72 7.20696 61.84 7.18705 61.96 7.18705H64.44C64.58 7.18705 64.7 7.20696 64.76 7.28659C64.84 7.36622 64.88 7.44585 64.88 7.56529C64.88 7.68474 64.84 7.76437 64.76 7.844C64.7 7.90372 64.58 7.94353 64.44 7.94353ZM66.9 7.68474L68.7 10.5713V7.66483C68.7 7.48566 68.74 7.34631 68.8 7.24677C68.88 7.14724 68.98 7.10742 69.12 7.10742C69.26 7.10742 69.36 7.14724 69.44 7.24677C69.52 7.3264 69.56 7.48566 69.56 7.66483V11.507C69.56 11.9449 69.38 12.1639 69.04 12.1639C68.96 12.1639 68.9 12.144 68.82 12.1241C68.76 12.1042 68.7 12.0644 68.64 12.0046C68.58 11.9449 68.52 11.8852 68.48 11.8056C68.42 11.7259 68.38 11.6463 68.32 11.5667L66.58 8.71992V11.5866C66.58 11.7857 66.54 11.925 66.46 12.0245C66.36 12.1042 66.26 12.1639 66.14 12.1639C66 12.1639 65.9 12.1042 65.82 12.0245C65.74 11.925 65.7 11.7857 65.7 11.5866V7.82409C65.7 7.66483 65.72 7.52548 65.74 7.44585C65.78 7.34631 65.86 7.26668 65.94 7.18705C66.04 7.12733 66.14 7.10742 66.24 7.10742C66.34 7.10742 66.4 7.10742 66.46 7.14724C66.52 7.16714 66.58 7.20696 66.62 7.26668C66.66 7.3065 66.7 7.36622 66.76 7.44585C66.8 7.52548 66.86 7.60511 66.9 7.68474ZM73.56 8.00325H72.54V11.5468C72.54 11.7658 72.5 11.9051 72.42 12.0046C72.32 12.1042 72.22 12.1639 72.08 12.1639C71.94 12.1639 71.84 12.1042 71.74 12.0046C71.66 11.9051 71.62 11.7658 71.62 11.5468V8.00325H70.6C70.44 8.00325 70.32 7.96344 70.24 7.88381C70.16 7.82409 70.12 7.72455 70.12 7.5852C70.12 7.46576 70.16 7.36622 70.24 7.28659C70.32 7.22687 70.44 7.18705 70.6 7.18705H73.56C73.72 7.18705 73.84 7.22687 73.92 7.28659C74 7.36622 74.04 7.46576 74.04 7.5852C74.04 7.72455 74 7.82409 73.92 7.88381C73.84 7.96344 73.72 8.00325 73.56 8.00325ZM77.62 7.94353H75.52V9.15788H77.46C77.6 9.15788 77.7 9.17779 77.78 9.25742C77.84 9.31714 77.88 9.41668 77.88 9.51622C77.88 9.63566 77.84 9.71529 77.78 9.79492C77.7 9.85464 77.6 9.89446 77.46 9.89446H75.52V11.288H77.7C77.84 11.288 77.96 11.3278 78.02 11.4074C78.1 11.4671 78.14 11.5667 78.14 11.6861C78.14 11.8056 78.1 11.9051 78.02 11.9648C77.96 12.0445 77.84 12.0843 77.7 12.0843H75.16C74.96 12.0843 74.82 12.0245 74.72 11.925C74.64 11.8454 74.58 11.6861 74.58 11.4671V7.78427C74.58 7.64492 74.6 7.52548 74.64 7.44585C74.68 7.34631 74.76 7.28659 74.84 7.24677C74.92 7.20696 75.02 7.18705 75.16 7.18705H77.62C77.78 7.18705 77.88 7.20696 77.96 7.28659C78.02 7.36622 78.06 7.44585 78.06 7.56529C78.06 7.68474 78.02 7.76437 77.96 7.844C77.88 7.90372 77.78 7.94353 77.62 7.94353ZM80.12 9.99399H79.8V11.5468C79.8 11.7658 79.76 11.925 79.68 12.0046C79.58 12.1042 79.48 12.1639 79.34 12.1639C79.2 12.1639 79.08 12.1042 79 12.0046C78.92 11.9051 78.88 11.7458 78.88 11.5468V7.78427C78.88 7.5852 78.92 7.42594 79 7.3264C79.1 7.22687 79.24 7.18705 79.44 7.18705H80.96C81.16 7.18705 81.34 7.18705 81.5 7.20696C81.64 7.22687 81.78 7.26668 81.9 7.3264C82.04 7.38613 82.16 7.48566 82.28 7.60511C82.4 7.72455 82.48 7.8639 82.54 8.02316C82.58 8.18242 82.62 8.34168 82.62 8.52085C82.62 8.89909 82.52 9.17779 82.32 9.39677C82.14 9.61575 81.84 9.77501 81.44 9.87455C81.62 9.95418 81.78 10.0935 81.92 10.2727C82.08 10.4718 82.2 10.6509 82.32 10.8699C82.44 11.069 82.54 11.2482 82.6 11.4273C82.66 11.5866 82.7 11.706 82.7 11.7658C82.7 11.8255 82.68 11.8852 82.64 11.9648C82.6 12.0245 82.56 12.0644 82.48 12.1042C82.42 12.144 82.34 12.1639 82.26 12.1639C82.14 12.1639 82.06 12.1241 81.98 12.0843C81.92 12.0245 81.86 11.9648 81.8 11.8852C81.76 11.8056 81.68 11.6861 81.6 11.5269L81.22 10.8699C81.08 10.631 80.96 10.4519 80.86 10.3125C80.76 10.1931 80.64 10.0935 80.54 10.0537C80.44 10.0139 80.3 9.99399 80.12 9.99399ZM80.66 7.92363H79.8V9.27733H80.64C80.86 9.27733 81.06 9.25742 81.2 9.21761C81.36 9.17779 81.48 9.09816 81.56 8.99862C81.64 8.89909 81.68 8.75974 81.68 8.60048C81.68 8.46113 81.64 8.34168 81.58 8.24214C81.52 8.1227 81.42 8.04307 81.3 8.00325C81.2 7.94353 80.98 7.92363 80.66 7.92363ZM83.54 11.5468V7.70464C83.54 7.50557 83.58 7.34631 83.66 7.24677C83.76 7.14724 83.86 7.10742 84 7.10742C84.14 7.10742 84.26 7.14724 84.34 7.24677C84.42 7.34631 84.48 7.50557 84.48 7.70464V11.5468C84.48 11.7658 84.42 11.9051 84.34 12.0046C84.26 12.1042 84.14 12.1639 84 12.1639C83.86 12.1639 83.76 12.1042 83.66 12.0046C83.58 11.9051 83.54 11.7658 83.54 11.5468ZM88.46 11.5269L88.24 10.9097H86.36L86.14 11.5269C86.06 11.7857 85.98 11.9449 85.92 12.0245C85.86 12.1241 85.76 12.1639 85.64 12.1639C85.52 12.1639 85.4 12.1241 85.32 12.0245C85.24 11.925 85.18 11.8255 85.18 11.706C85.18 11.6463 85.2 11.5667 85.22 11.507C85.24 11.4273 85.28 11.3278 85.32 11.2083L86.5 8.02316C86.54 7.94353 86.58 7.82409 86.62 7.70464C86.66 7.56529 86.72 7.46576 86.76 7.38613C86.82 7.3065 86.9 7.22687 86.98 7.18705C87.06 7.12733 87.18 7.10742 87.3 7.10742C87.44 7.10742 87.54 7.12733 87.62 7.18705C87.72 7.22687 87.78 7.3065 87.84 7.38613C87.88 7.46576 87.94 7.54538 87.98 7.64492C88 7.74446 88.06 7.8639 88.12 8.02316L89.32 11.1884C89.4 11.4273 89.46 11.6065 89.46 11.706C89.46 11.8255 89.4 11.925 89.32 12.0245C89.24 12.1042 89.12 12.1639 89 12.1639C88.92 12.1639 88.86 12.144 88.8 12.1241C88.76 12.0843 88.72 12.0445 88.68 12.0046C88.64 11.9648 88.6 11.8852 88.56 11.7857C88.52 11.6861 88.48 11.6065 88.46 11.5269ZM86.62 10.1732H87.98L87.3 8.14261L86.62 10.1732ZM91.36 7.68474L93.14 10.5713V7.66483C93.14 7.48566 93.18 7.34631 93.26 7.24677C93.34 7.14724 93.44 7.10742 93.56 7.10742C93.7 7.10742 93.8 7.14724 93.88 7.24677C93.96 7.3264 94 7.48566 94 7.66483V11.507C94 11.9449 93.84 12.1639 93.5 12.1639C93.42 12.1639 93.34 12.144 93.28 12.1241C93.2 12.1042 93.14 12.0644 93.08 12.0046C93.02 11.9449 92.98 11.8852 92.92 11.8056C92.88 11.7259 92.82 11.6463 92.78 11.5667L91.02 8.71992V11.5866C91.02 11.7857 90.98 11.925 90.9 12.0245C90.82 12.1042 90.72 12.1639 90.58 12.1639C90.46 12.1639 90.34 12.1042 90.26 12.0245C90.18 11.925 90.14 11.7857 90.14 11.5866V7.82409C90.14 7.66483 90.16 7.52548 90.2 7.44585C90.24 7.34631 90.3 7.26668 90.4 7.18705C90.48 7.12733 90.58 7.10742 90.7 7.10742C90.78 7.10742 90.86 7.10742 90.92 7.14724C90.98 7.16714 91.02 7.20696 91.06 7.26668C91.12 7.3065 91.16 7.36622 91.2 7.44585C91.26 7.52548 91.3 7.60511 91.36 7.68474ZM47.94 15.6079V17.3398L49.76 15.3093C49.86 15.2097 49.92 15.1301 49.98 15.0903C50.06 15.0306 50.14 15.0107 50.24 15.0107C50.36 15.0107 50.48 15.0505 50.56 15.1301C50.64 15.2296 50.68 15.3292 50.68 15.4486C50.68 15.588 50.62 15.7273 50.48 15.8667L49.34 17.0213L50.64 19.012C50.74 19.1514 50.8 19.2708 50.86 19.3704C50.9 19.4699 50.92 19.5695 50.92 19.669C50.92 19.7884 50.88 19.8681 50.8 19.9477C50.72 20.0273 50.62 20.0671 50.48 20.0671C50.34 20.0671 50.24 20.0472 50.16 19.9875C50.08 19.9278 50 19.8482 49.96 19.7486C49.9 19.6491 49.84 19.5695 49.8 19.4898L48.7 17.6783L47.94 18.4546V19.4699C47.94 19.669 47.9 19.8283 47.8 19.9278C47.72 20.0273 47.6 20.0671 47.46 20.0671C47.38 20.0671 47.3 20.0472 47.24 20.0074C47.16 19.9676 47.1 19.9079 47.06 19.8283C47.04 19.7685 47.02 19.6889 47.02 19.6093C47 19.5296 47 19.4102 47 19.2509V15.6079C47 15.4088 47.04 15.2695 47.12 15.1699C47.22 15.0704 47.32 15.0107 47.46 15.0107C47.6 15.0107 47.72 15.0704 47.8 15.1699C47.9 15.2695 47.94 15.4088 47.94 15.6079ZM54.78 15.8667H52.68V17.0611H54.62C54.76 17.0611 54.88 17.1009 54.94 17.1607C55.02 17.2403 55.04 17.3199 55.04 17.4394C55.04 17.5389 55.02 17.6384 54.94 17.6982C54.88 17.7778 54.76 17.8176 54.62 17.8176H52.68V19.2111H54.86C55 19.2111 55.12 19.2509 55.2 19.3107C55.26 19.3903 55.3 19.4898 55.3 19.6093C55.3 19.7088 55.26 19.8083 55.2 19.888C55.12 19.9477 55 19.9875 54.86 19.9875H52.32C52.12 19.9875 51.98 19.9477 51.88 19.8482C51.8 19.7486 51.76 19.5894 51.76 19.3903V15.7074C51.76 15.5681 51.78 15.4486 51.82 15.3491C51.86 15.2695 51.92 15.1898 52 15.15C52.08 15.1102 52.2 15.0903 52.32 15.0903H54.78C54.94 15.0903 55.04 15.1301 55.12 15.2097C55.2 15.2695 55.22 15.369 55.22 15.4685C55.22 15.588 55.2 15.6875 55.12 15.7671C55.04 15.8269 54.94 15.8667 54.78 15.8667ZM59.54 18.5343C59.54 18.813 59.46 19.0917 59.32 19.3306C59.18 19.5495 58.98 19.7486 58.7 19.8681C58.42 20.0074 58.1 20.0671 57.72 20.0671C57.26 20.0671 56.88 19.9875 56.58 19.8083C56.38 19.669 56.22 19.4898 56.08 19.2708C55.96 19.0519 55.88 18.8528 55.88 18.6338C55.88 18.5144 55.92 18.4148 56 18.3352C56.08 18.2357 56.18 18.1958 56.3 18.1958C56.4 18.1958 56.48 18.2357 56.56 18.2954C56.62 18.375 56.68 18.4745 56.72 18.594C56.78 18.7533 56.84 18.8926 56.92 18.9921C56.98 19.0917 57.08 19.1713 57.2 19.2509C57.32 19.3107 57.48 19.3505 57.68 19.3505C57.96 19.3505 58.18 19.2908 58.36 19.1514C58.54 19.012 58.62 18.8329 58.62 18.6338C58.62 18.4745 58.58 18.3352 58.48 18.2357C58.38 18.1361 58.26 18.0565 58.12 17.9968C57.98 17.957 57.78 17.8972 57.52 17.8375C57.2 17.7579 56.92 17.6583 56.7 17.5389C56.48 17.4394 56.3 17.2801 56.16 17.1009C56.04 16.9019 55.98 16.663 55.98 16.3843C55.98 16.1056 56.04 15.8667 56.18 15.6676C56.32 15.4486 56.52 15.2894 56.78 15.1898C57.04 15.0704 57.34 15.0107 57.7 15.0107C57.98 15.0107 58.22 15.0505 58.44 15.1301C58.64 15.2097 58.82 15.3093 58.94 15.4287C59.08 15.5482 59.18 15.6676 59.24 15.807C59.3 15.9463 59.34 16.0857 59.34 16.2051C59.34 16.3245 59.3 16.444 59.22 16.5236C59.14 16.6232 59.04 16.663 58.92 16.663C58.82 16.663 58.74 16.6431 58.68 16.5833C58.62 16.5236 58.56 16.444 58.5 16.3046C58.42 16.1255 58.32 15.9861 58.2 15.8667C58.08 15.7671 57.9 15.7273 57.64 15.7273C57.4 15.7273 57.2 15.7671 57.06 15.8866C56.9 16.006 56.84 16.1255 56.84 16.2847C56.84 16.3843 56.86 16.4838 56.9 16.5435C56.96 16.6232 57.02 16.6829 57.12 16.7227C57.2 16.7824 57.3 16.8222 57.38 16.8421C57.48 16.882 57.62 16.9218 57.82 16.9815C58.08 17.0412 58.32 17.1208 58.54 17.2005C58.74 17.2602 58.92 17.3597 59.08 17.4792C59.22 17.5787 59.34 17.738 59.42 17.8972C59.5 18.0764 59.54 18.2755 59.54 18.5343ZM63.36 15.8667H61.26V17.0611H63.2C63.34 17.0611 63.44 17.1009 63.52 17.1607C63.58 17.2403 63.62 17.3199 63.62 17.4394C63.62 17.5389 63.58 17.6384 63.52 17.6982C63.44 17.7778 63.34 17.8176 63.2 17.8176H61.26V19.2111H63.44C63.58 19.2111 63.7 19.2509 63.76 19.3107C63.84 19.3903 63.88 19.4898 63.88 19.6093C63.88 19.7088 63.84 19.8083 63.76 19.888C63.7 19.9477 63.58 19.9875 63.44 19.9875H60.9C60.7 19.9875 60.56 19.9477 60.46 19.8482C60.38 19.7486 60.34 19.5894 60.34 19.3903V15.7074C60.34 15.5681 60.36 15.4486 60.4 15.3491C60.44 15.2695 60.5 15.1898 60.58 15.15C60.66 15.1102 60.78 15.0903 60.9 15.0903H63.36C63.52 15.0903 63.62 15.1301 63.7 15.2097C63.76 15.2695 63.8 15.369 63.8 15.4685C63.8 15.588 63.76 15.6875 63.7 15.7671C63.62 15.8269 63.52 15.8667 63.36 15.8667ZM65.56 15.6079V17.0213H67.58V15.6079C67.58 15.4088 67.62 15.2695 67.7 15.1699C67.78 15.0704 67.9 15.0107 68.04 15.0107C68.18 15.0107 68.28 15.0704 68.38 15.1699C68.46 15.2695 68.5 15.4088 68.5 15.6079V19.4699C68.5 19.669 68.46 19.8283 68.38 19.9278C68.28 20.0273 68.16 20.0671 68.04 20.0671C67.9 20.0671 67.78 20.0273 67.7 19.9278C67.62 19.8283 67.58 19.669 67.58 19.4699V17.8176H65.56V19.4699C65.56 19.669 65.52 19.8283 65.42 19.9278C65.34 20.0273 65.22 20.0671 65.08 20.0671C64.94 20.0671 64.84 20.0273 64.76 19.9278C64.66 19.8283 64.62 19.669 64.62 19.4699V15.6079C64.62 15.4088 64.66 15.2695 64.76 15.1699C64.84 15.0704 64.94 15.0107 65.08 15.0107C65.22 15.0107 65.34 15.0704 65.42 15.1699C65.52 15.2695 65.56 15.4088 65.56 15.6079ZM72.44 19.4301L72.22 18.8329H70.36L70.14 19.45C70.06 19.6889 69.98 19.8681 69.92 19.9477C69.86 20.0273 69.76 20.0671 69.62 20.0671C69.5 20.0671 69.4 20.0273 69.32 19.9477C69.22 19.8482 69.18 19.7486 69.18 19.6292C69.18 19.5695 69.18 19.4898 69.2 19.4301C69.22 19.3505 69.26 19.2509 69.32 19.1315L70.48 15.9463C70.52 15.8468 70.56 15.7472 70.6 15.6079C70.66 15.4884 70.7 15.3889 70.76 15.2894C70.82 15.2097 70.88 15.15 70.96 15.0903C71.06 15.0306 71.16 15.0107 71.3 15.0107C71.42 15.0107 71.54 15.0306 71.62 15.0903C71.7 15.15 71.78 15.2097 71.82 15.2894C71.88 15.369 71.92 15.4685 71.96 15.5681C72 15.6477 72.04 15.787 72.1 15.9463L73.3 19.0917C73.4 19.3306 73.44 19.5097 73.44 19.6292C73.44 19.7287 73.4 19.8482 73.32 19.9278C73.22 20.0273 73.12 20.0671 72.98 20.0671C72.92 20.0671 72.86 20.0671 72.8 20.0273C72.74 20.0074 72.7 19.9676 72.66 19.9278C72.64 19.8681 72.6 19.7884 72.56 19.7088C72.52 19.6093 72.48 19.5097 72.44 19.4301ZM70.6 18.0764H71.98L71.28 16.0658L70.6 18.0764ZM76.56 15.9264H75.54V19.4699C75.54 19.669 75.5 19.8283 75.4 19.9278C75.32 20.0273 75.2 20.0671 75.08 20.0671C74.94 20.0671 74.82 20.0273 74.74 19.9278C74.64 19.8283 74.6 19.669 74.6 19.4699V15.9264H73.58C73.42 15.9264 73.3 15.8866 73.24 15.807C73.16 15.7273 73.12 15.6278 73.12 15.5083C73.12 15.3889 73.16 15.2894 73.24 15.2097C73.32 15.1301 73.44 15.0903 73.58 15.0903H76.56C76.72 15.0903 76.84 15.1301 76.92 15.2097C77 15.2894 77.04 15.3889 77.04 15.5083C77.04 15.6278 77 15.7273 76.92 15.807C76.84 15.8866 76.72 15.9264 76.56 15.9264ZM80.12 19.4301L79.9 18.8329H78.04L77.82 19.45C77.72 19.6889 77.66 19.8681 77.6 19.9477C77.54 20.0273 77.44 20.0671 77.3 20.0671C77.18 20.0671 77.08 20.0273 76.98 19.9477C76.9 19.8482 76.84 19.7486 76.84 19.6292C76.84 19.5695 76.86 19.4898 76.88 19.4301C76.9 19.3505 76.94 19.2509 76.98 19.1315L78.16 15.9463C78.2 15.8468 78.24 15.7472 78.28 15.6079C78.32 15.4884 78.38 15.3889 78.44 15.2894C78.48 15.2097 78.56 15.15 78.64 15.0903C78.72 15.0306 78.84 15.0107 78.96 15.0107C79.1 15.0107 79.2 15.0306 79.28 15.0903C79.38 15.15 79.44 15.2097 79.5 15.2894C79.56 15.369 79.6 15.4685 79.64 15.5681C79.68 15.6477 79.72 15.787 79.78 15.9463L80.98 19.0917C81.06 19.3306 81.12 19.5097 81.12 19.6292C81.12 19.7287 81.08 19.8482 80.98 19.9278C80.9 20.0273 80.78 20.0671 80.66 20.0671C80.58 20.0671 80.52 20.0671 80.48 20.0273C80.42 20.0074 80.38 19.9676 80.34 19.9278C80.3 19.8681 80.26 19.7884 80.22 19.7088C80.18 19.6093 80.16 19.5097 80.12 19.4301ZM78.28 18.0764H79.66L78.96 16.0658L78.28 18.0764ZM83.02 15.6079L84.8 18.4945V15.588C84.8 15.3889 84.84 15.2495 84.92 15.15C85 15.0704 85.1 15.0107 85.24 15.0107C85.36 15.0107 85.46 15.0704 85.54 15.15C85.62 15.2495 85.66 15.3889 85.66 15.588V19.4301C85.66 19.8681 85.5 20.0671 85.16 20.0671C85.08 20.0671 85 20.0671 84.94 20.0273C84.86 20.0074 84.8 19.9676 84.74 19.9079C84.68 19.8681 84.64 19.7884 84.58 19.7287C84.54 19.6491 84.48 19.5695 84.44 19.4898L82.68 16.6431V19.5097C82.68 19.6889 82.64 19.8283 82.56 19.9278C82.48 20.0273 82.38 20.0671 82.24 20.0671C82.12 20.0671 82.02 20.0273 81.94 19.9278C81.86 19.8283 81.82 19.6889 81.82 19.5097V15.7273C81.82 15.5681 81.82 15.4486 81.86 15.3491C81.9 15.2495 81.96 15.1699 82.06 15.1102C82.16 15.0505 82.26 15.0107 82.36 15.0107C82.44 15.0107 82.52 15.0306 82.58 15.0505C82.64 15.0903 82.68 15.1301 82.74 15.1699C82.78 15.2296 82.82 15.2894 82.86 15.369C82.92 15.4486 82.96 15.5283 83.02 15.6079ZM48.24 25.8204H47.92V27.3931C47.92 27.5921 47.88 27.7514 47.8 27.8509C47.7 27.9505 47.6 27.9903 47.46 27.9903C47.3 27.9903 47.2 27.9306 47.12 27.831C47.04 27.7315 47 27.5921 47 27.3931V23.6107C47 23.4116 47.04 23.2523 47.12 23.1528C47.22 23.0532 47.36 23.0134 47.56 23.0134H49.08C49.28 23.0134 49.46 23.0134 49.62 23.0333C49.76 23.0532 49.9 23.0931 50.02 23.1528C50.16 23.2125 50.28 23.312 50.4 23.4315C50.52 23.5509 50.6 23.6903 50.66 23.8495C50.7 24.0088 50.74 24.188 50.74 24.3671C50.74 24.7255 50.64 25.0241 50.44 25.2431C50.26 25.4421 49.96 25.6014 49.56 25.7009C49.74 25.8005 49.9 25.9199 50.04 26.119C50.2 26.2982 50.32 26.4972 50.44 26.6963C50.56 26.8954 50.66 27.0945 50.72 27.2537C50.78 27.413 50.82 27.5324 50.82 27.5921C50.82 27.6519 50.8 27.7116 50.76 27.7912C50.72 27.8509 50.68 27.8907 50.6 27.9306C50.54 27.9704 50.46 27.9903 50.38 27.9903C50.26 27.9903 50.18 27.9704 50.1 27.9107C50.04 27.8509 49.98 27.7912 49.92 27.7116C49.88 27.632 49.8 27.5125 49.72 27.3532L49.34 26.6963C49.2 26.4574 49.08 26.2782 48.98 26.1389C48.88 26.0195 48.76 25.9398 48.66 25.8801C48.56 25.8403 48.42 25.8204 48.24 25.8204ZM48.78 23.75H47.92V25.1037H48.76C48.98 25.1037 49.16 25.0838 49.32 25.044C49.48 25.0042 49.6 24.9245 49.68 24.825C49.76 24.7255 49.8 24.5861 49.8 24.4269C49.8 24.2875 49.76 24.1681 49.7 24.0685C49.64 23.9491 49.54 23.8894 49.42 23.8296C49.32 23.7898 49.1 23.75 48.78 23.75ZM54.66 23.7699H52.56V24.9843H54.48C54.62 24.9843 54.74 25.0241 54.8 25.0838C54.88 25.1435 54.9 25.2431 54.9 25.3426C54.9 25.462 54.88 25.5616 54.8 25.6213C54.74 25.681 54.64 25.7208 54.48 25.7208H52.56V27.1144H54.72C54.88 27.1144 54.98 27.1542 55.06 27.2338C55.14 27.2935 55.16 27.3931 55.16 27.5125C55.16 27.632 55.14 27.7315 55.06 27.7912C54.98 27.8708 54.88 27.9107 54.72 27.9107H52.2C51.98 27.9107 51.84 27.8509 51.76 27.7713C51.66 27.6718 51.62 27.5125 51.62 27.2935V23.6107C51.62 23.4713 51.64 23.3519 51.68 23.2722C51.72 23.1727 51.78 23.113 51.86 23.0732C51.96 23.0333 52.06 23.0134 52.2 23.0134H54.66C54.8 23.0134 54.92 23.0532 54.98 23.113C55.06 23.1926 55.1 23.2722 55.1 23.3917C55.1 23.5111 55.06 23.6107 54.98 23.6704C54.92 23.75 54.8 23.7699 54.66 23.7699ZM57.7 25.9995H56.84V27.3931C56.84 27.5921 56.8 27.7315 56.7 27.831C56.62 27.9306 56.5 27.9903 56.38 27.9903C56.24 27.9903 56.12 27.9306 56.04 27.831C55.96 27.7315 55.9 27.5921 55.9 27.3931V23.6107C55.9 23.3917 55.96 23.2523 56.04 23.1528C56.14 23.0532 56.3 23.0134 56.5 23.0134H57.7C58.04 23.0134 58.32 23.0333 58.52 23.0931C58.7 23.1528 58.86 23.2523 59 23.3718C59.14 23.5111 59.24 23.6704 59.32 23.8495C59.38 24.0287 59.42 24.2477 59.42 24.4866C59.42 24.9843 59.28 25.3625 58.98 25.6213C58.7 25.8801 58.26 25.9995 57.7 25.9995ZM57.46 23.75H56.84V25.263H57.46C57.68 25.263 57.88 25.2232 58.02 25.1833C58.16 25.1236 58.28 25.044 58.36 24.9445C58.44 24.825 58.48 24.6857 58.48 24.5065C58.48 24.2875 58.42 24.1083 58.3 23.969C58.16 23.8296 57.88 23.75 57.46 23.75ZM60.2 25.8801V23.531C60.2 23.332 60.24 23.1727 60.34 23.0732C60.42 22.9736 60.52 22.9338 60.66 22.9338C60.8 22.9338 60.92 22.9736 61 23.0732C61.1 23.1727 61.14 23.332 61.14 23.531V25.9398C61.14 26.2185 61.16 26.4375 61.22 26.6167C61.28 26.8157 61.38 26.9551 61.52 27.0546C61.68 27.1542 61.88 27.194 62.14 27.194C62.5 27.194 62.76 27.0945 62.92 26.8954C63.06 26.6963 63.14 26.3778 63.14 25.9597V23.531C63.14 23.332 63.18 23.1727 63.26 23.0732C63.34 22.9736 63.46 22.9338 63.6 22.9338C63.74 22.9338 63.86 22.9736 63.94 23.0732C64.02 23.1727 64.08 23.332 64.08 23.531V25.8801C64.08 26.2583 64.04 26.5769 63.96 26.8357C63.9 27.0945 63.76 27.3134 63.58 27.5125C63.4 27.6718 63.2 27.7912 62.98 27.8708C62.76 27.9505 62.5 27.9903 62.2 27.9903C61.86 27.9903 61.56 27.9505 61.3 27.8708C61.04 27.7912 60.84 27.6519 60.68 27.4926C60.5 27.3134 60.4 27.0945 60.32 26.8357C60.24 26.5769 60.2 26.2583 60.2 25.8801Z" fill="#222222"/>
<path fill-rule="evenodd" clip-rule="evenodd" d="M67.04 27.9104H65.64C65.44 27.9104 65.3 27.8507 65.2 27.7711C65.12 27.6716 65.08 27.5123 65.08 27.2933V23.6104C65.08 23.4114 65.12 23.2521 65.2 23.1526C65.3 23.053 65.44 23.0132 65.64 23.0132H67.14C67.36 23.0132 67.54 23.0331 67.7 23.053C67.86 23.0929 68 23.1327 68.14 23.2123C68.24 23.2919 68.34 23.3716 68.42 23.491C68.5 23.5905 68.58 23.71 68.62 23.8294C68.66 23.9688 68.68 24.0882 68.68 24.2475C68.68 24.7253 68.46 25.0836 68 25.3225C68.6 25.5216 68.9 25.9197 68.9 26.5169C68.9 26.7757 68.84 27.0345 68.7 27.2535C68.56 27.4725 68.4 27.6317 68.16 27.7313C68.02 27.791 67.86 27.8507 67.68 27.8706C67.5 27.8905 67.28 27.9104 67.04 27.9104ZM66.98 25.7405H66V27.154H67C67.64 27.154 67.96 26.9151 67.96 26.4373C67.96 26.1984 67.88 26.0192 67.7 25.8998C67.54 25.7804 67.3 25.7405 66.98 25.7405ZM66 23.7498V25.0239H66.86C67.1 25.0239 67.28 25.004 67.4 24.9442C67.52 24.9044 67.62 24.8248 67.7 24.6854C67.74 24.5859 67.76 24.4864 67.76 24.3669C67.76 24.128 67.68 23.9688 67.52 23.8692C67.36 23.7896 67.1 23.7498 66.76 23.7498H66ZM70.62 23.5308V27.0942H72.5C72.66 27.0942 72.78 27.1341 72.86 27.2137C72.94 27.2933 72.98 27.3929 72.98 27.5123C72.98 27.6317 72.94 27.7313 72.86 27.791C72.78 27.8706 72.66 27.9104 72.5 27.9104H70.26C70.06 27.9104 69.9 27.8507 69.82 27.7711C69.74 27.6716 69.68 27.5123 69.68 27.2933V23.5308C69.68 23.3317 69.72 23.1725 69.82 23.0729C69.9 22.9734 70 22.9336 70.14 22.9336C70.28 22.9336 70.4 22.9734 70.48 23.0729C70.58 23.1725 70.62 23.3317 70.62 23.5308ZM73.62 27.3929V23.5308C73.62 23.3317 73.66 23.1725 73.76 23.0729C73.84 22.9734 73.96 22.9336 74.08 22.9336C74.22 22.9336 74.34 22.9734 74.42 23.0729C74.52 23.1725 74.56 23.3317 74.56 23.5308V27.3929C74.56 27.5919 74.52 27.7313 74.42 27.8308C74.34 27.9304 74.22 27.9901 74.08 27.9901C73.96 27.9901 73.84 27.9304 73.76 27.8308C73.68 27.7313 73.62 27.5919 73.62 27.3929ZM76.54 23.5308V25.2429L78.36 23.2123C78.46 23.1128 78.54 23.053 78.6 22.9933C78.66 22.9535 78.74 22.9336 78.84 22.9336C78.98 22.9336 79.08 22.9734 79.16 23.053C79.24 23.1327 79.28 23.2322 79.28 23.3516C79.28 23.5109 79.22 23.6503 79.08 23.7896L77.94 24.9243L79.26 26.9151C79.34 27.0544 79.42 27.1739 79.46 27.2933C79.5 27.3929 79.52 27.4924 79.52 27.5919C79.52 27.6915 79.48 27.791 79.4 27.8706C79.32 27.9503 79.22 27.9901 79.08 27.9901C78.94 27.9901 78.84 27.9503 78.76 27.9104C78.68 27.8507 78.62 27.7711 78.56 27.6716C78.5 27.572 78.44 27.4725 78.4 27.3929L77.3 25.6012L76.54 26.3776V27.3929C76.54 27.5919 76.5 27.7512 76.4 27.8507C76.32 27.9503 76.2 27.9901 76.06 27.9901C75.98 27.9901 75.92 27.9702 75.84 27.9304C75.76 27.8706 75.7 27.8109 75.66 27.7512C75.64 27.6716 75.62 27.6118 75.62 27.5322C75.6 27.4526 75.6 27.3331 75.6 27.1739V23.5308C75.6 23.3317 75.64 23.1725 75.74 23.0729C75.82 22.9734 75.92 22.9336 76.06 22.9336C76.2 22.9336 76.32 22.9734 76.4 23.0729C76.5 23.1725 76.54 23.3317 76.54 23.5308ZM47.04 35.2961V31.454C47.04 31.235 47.08 31.0956 47.16 30.9961C47.24 30.8966 47.36 30.8368 47.5 30.8368C47.64 30.8368 47.76 30.8966 47.84 30.9961C47.92 31.0956 47.96 31.235 47.96 31.454V35.2961C47.96 35.4952 47.92 35.6544 47.84 35.754C47.76 35.8535 47.64 35.9132 47.5 35.9132C47.36 35.9132 47.26 35.8535 47.16 35.754C47.08 35.6544 47.04 35.4952 47.04 35.2961ZM50.22 31.4341L52.02 34.3206V31.4142C52.02 31.2151 52.06 31.0757 52.14 30.9762C52.2 30.8966 52.32 30.8368 52.44 30.8368C52.58 30.8368 52.68 30.8966 52.76 30.9762C52.84 31.0757 52.88 31.2151 52.88 31.4142V35.2563C52.88 35.6942 52.7 35.9132 52.38 35.9132C52.28 35.9132 52.22 35.8933 52.14 35.8734C52.08 35.8336 52.02 35.7938 51.96 35.754C51.9 35.6942 51.84 35.6146 51.8 35.5549C51.74 35.4753 51.7 35.3956 51.64 35.316L49.9 32.4692V35.3359C49.9 35.5151 49.86 35.6743 49.78 35.754C49.7 35.8535 49.58 35.9132 49.46 35.9132C49.32 35.9132 49.22 35.8535 49.14 35.754C49.06 35.6544 49.02 35.5151 49.02 35.3359V31.5535C49.02 31.3942 49.04 31.2748 49.08 31.1753C49.12 31.0757 49.18 30.9961 49.28 30.9364C49.36 30.8767 49.46 30.8368 49.56 30.8368C49.66 30.8368 49.72 30.8567 49.78 30.8966C49.84 30.9165 49.9 30.9563 49.94 30.9961C49.98 31.0558 50.04 31.1155 50.08 31.1952C50.12 31.2748 50.18 31.3544 50.22 31.4341ZM54.48 30.9165H55.68C56 30.9165 56.28 30.9563 56.5 31.016C56.72 31.0757 56.94 31.1952 57.12 31.3743C57.6 31.8123 57.84 32.4692 57.84 33.3651C57.84 33.6637 57.82 33.9225 57.76 34.1614C57.72 34.4003 57.64 34.6192 57.54 34.8183C57.44 35.0174 57.32 35.1966 57.16 35.3359C57.04 35.4554 56.9 35.5549 56.74 35.6345C56.6 35.6942 56.44 35.754 56.28 35.7739C56.1 35.8137 55.92 35.8137 55.7 35.8137H54.5C54.32 35.8137 54.2 35.7938 54.1 35.7341C54.02 35.6942 53.96 35.6146 53.94 35.5151C53.92 35.4155 53.9 35.2762 53.9 35.1169V31.5336C53.9 31.3146 53.94 31.1554 54.04 31.0757C54.12 30.9762 54.28 30.9165 54.48 30.9165ZM54.84 31.7128V35.0373H55.54C55.7 35.0373 55.82 35.0373 55.9 35.0174C56 35.0174 56.08 34.9975 56.18 34.9577C56.28 34.9179 56.36 34.878 56.42 34.7984C56.74 34.5197 56.88 34.0419 56.88 33.3651C56.88 32.8674 56.82 32.5091 56.68 32.2702C56.54 32.0313 56.38 31.872 56.18 31.8123C55.98 31.7526 55.74 31.7128 55.44 31.7128H54.84ZM60.68 30.8368C61.16 30.8368 61.56 30.9364 61.9 31.1554C62.24 31.3544 62.5 31.653 62.68 32.0313C62.86 32.4095 62.94 32.8475 62.94 33.3651C62.94 33.7433 62.9 34.0817 62.8 34.4003C62.7 34.6989 62.56 34.9776 62.36 35.1966C62.18 35.4354 61.94 35.5947 61.66 35.7341C61.38 35.8535 61.06 35.9132 60.7 35.9132C60.34 35.9132 60.02 35.8336 59.74 35.7142C59.44 35.5947 59.2 35.4155 59.02 35.1966C58.82 34.9776 58.68 34.6989 58.58 34.3804C58.48 34.0618 58.44 33.7234 58.44 33.3651C58.44 32.9868 58.5 32.6484 58.6 32.3299C58.7 32.0114 58.84 31.7526 59.04 31.5336C59.22 31.2947 59.46 31.1354 59.74 31.016C60.02 30.8966 60.32 30.8368 60.68 30.8368ZM62 33.3651C62 33.0067 61.94 32.6882 61.84 32.4294C61.72 32.1706 61.58 31.9716 61.38 31.8322C61.18 31.6929 60.94 31.6331 60.68 31.6331C60.5 31.6331 60.32 31.6729 60.16 31.7327C60 31.8123 59.86 31.9317 59.76 32.0711C59.64 32.2104 59.56 32.3896 59.48 32.6086C59.42 32.8276 59.38 33.0864 59.38 33.3651C59.38 33.6438 59.42 33.8827 59.48 34.1216C59.56 34.3405 59.64 34.5197 59.76 34.679C59.88 34.8183 60.02 34.9378 60.18 34.9975C60.34 35.0771 60.5 35.1169 60.7 35.1169C60.92 35.1169 61.14 35.0572 61.34 34.9179C61.54 34.7984 61.7 34.5993 61.82 34.3405C61.94 34.0817 62 33.7433 62 33.3651ZM64.96 31.4341L66.76 34.3206V31.4142C66.76 31.2151 66.8 31.0757 66.86 30.9762C66.94 30.8966 67.04 30.8368 67.18 30.8368C67.3 30.8368 67.42 30.8966 67.5 30.9762C67.56 31.0757 67.6 31.2151 67.6 31.4142V35.2563C67.6 35.6942 67.44 35.9132 67.1 35.9132C67.02 35.9132 66.94 35.8933 66.88 35.8734C66.82 35.8336 66.76 35.7938 66.7 35.754C66.64 35.6942 66.58 35.6146 66.52 35.5549C66.48 35.4753 66.42 35.3956 66.38 35.316L64.64 32.4692V35.3359C64.64 35.5151 64.6 35.6743 64.5 35.754C64.42 35.8535 64.32 35.9132 64.2 35.9132C64.06 35.9132 63.96 35.8535 63.88 35.754C63.8 35.6544 63.76 35.5151 63.76 35.3359V31.5535C63.76 31.3942 63.78 31.2748 63.8 31.1753C63.84 31.0757 63.92 30.9961 64 30.9364C64.1 30.8767 64.2 30.8368 64.3 30.8368C64.38 30.8368 64.46 30.8567 64.52 30.8966C64.58 30.9165 64.64 30.9563 64.68 30.9961C64.72 31.0558 64.76 31.1155 64.82 31.1952C64.86 31.2748 64.92 31.3544 64.96 31.4341ZM71.66 31.6929H69.56V32.8873H71.5C71.64 32.8873 71.74 32.9271 71.82 32.9868C71.88 33.0665 71.92 33.1461 71.92 33.2655C71.92 33.385 71.88 33.4646 71.82 33.5442C71.74 33.604 71.64 33.6438 71.5 33.6438H69.56V35.0373H71.74C71.88 35.0373 71.98 35.0771 72.06 35.1368C72.14 35.2165 72.18 35.316 72.18 35.4354C72.18 35.5549 72.14 35.6345 72.06 35.7142C71.98 35.7938 71.88 35.8137 71.74 35.8137H69.2C69 35.8137 68.86 35.7739 68.76 35.6743C68.68 35.5748 68.62 35.4354 68.62 35.2165V31.5336C68.62 31.3942 68.64 31.2748 68.68 31.1753C68.72 31.0956 68.8 31.0359 68.88 30.9961C68.96 30.9364 69.06 30.9165 69.2 30.9165H71.66C71.8 30.9165 71.92 30.9563 72 31.0359C72.06 31.0956 72.1 31.1952 72.1 31.3146C72.1 31.4142 72.06 31.5137 72 31.5933C71.92 31.653 71.8 31.6929 71.66 31.6929ZM76.42 34.3604C76.42 34.6591 76.34 34.9179 76.2 35.1567C76.06 35.3956 75.84 35.5748 75.56 35.7142C75.3 35.8336 74.96 35.9132 74.58 35.9132C74.14 35.9132 73.76 35.8137 73.46 35.6345C73.26 35.4952 73.08 35.316 72.96 35.097C72.82 34.878 72.76 34.679 72.76 34.46C72.76 34.3405 72.8 34.241 72.88 34.1614C72.96 34.0817 73.06 34.022 73.18 34.022C73.28 34.022 73.36 34.0618 73.42 34.1216C73.5 34.2012 73.56 34.3007 73.6 34.4202C73.66 34.5794 73.72 34.7188 73.78 34.8183C73.86 34.9179 73.96 35.0174 74.08 35.0771C74.2 35.1368 74.36 35.1767 74.56 35.1767C74.84 35.1767 75.06 35.1169 75.24 34.9776C75.4 34.8382 75.5 34.6591 75.5 34.46C75.5 34.3007 75.44 34.1614 75.36 34.0618C75.26 33.9623 75.14 33.8827 75 33.8429C74.84 33.7831 74.64 33.7234 74.4 33.6637C74.08 33.5841 73.8 33.4845 73.58 33.3651C73.34 33.2655 73.18 33.1063 73.04 32.9271C72.92 32.728 72.84 32.4892 72.84 32.2104C72.84 31.9517 72.92 31.7128 73.06 31.4938C73.2 31.2947 73.4 31.1155 73.66 31.016C73.92 30.8966 74.22 30.8368 74.58 30.8368C74.86 30.8368 75.1 30.8767 75.3 30.9563C75.52 31.0359 75.68 31.1354 75.82 31.2549C75.96 31.3743 76.06 31.5137 76.12 31.6331C76.18 31.7725 76.22 31.9118 76.22 32.0313C76.22 32.1507 76.18 32.2702 76.1 32.3498C76.02 32.4493 75.92 32.5091 75.8 32.5091C75.7 32.5091 75.62 32.4692 75.56 32.4095C75.5 32.3498 75.44 32.2702 75.38 32.1308C75.3 31.9517 75.2 31.8123 75.08 31.7128C74.96 31.5933 74.78 31.5535 74.52 31.5535C74.28 31.5535 74.08 31.6132 73.92 31.7128C73.78 31.8322 73.7 31.9716 73.7 32.1308C73.7 32.2304 73.74 32.31 73.78 32.3697C73.84 32.4493 73.9 32.5091 74 32.5688C74.08 32.6086 74.16 32.6484 74.26 32.6882C74.34 32.7081 74.5 32.7479 74.7 32.8077C74.96 32.8674 75.2 32.947 75.4 33.0267C75.62 33.1063 75.8 33.1859 75.94 33.3054C76.1 33.4248 76.2 33.5642 76.28 33.7234C76.38 33.9026 76.42 34.1017 76.42 34.3604ZM77.24 35.2961V31.454C77.24 31.235 77.28 31.0956 77.38 30.9961C77.46 30.8966 77.56 30.8368 77.7 30.8368C77.84 30.8368 77.96 30.8966 78.04 30.9961C78.14 31.0956 78.18 31.235 78.18 31.454V35.2961C78.18 35.4952 78.14 35.6544 78.04 35.754C77.96 35.8535 77.84 35.9132 77.7 35.9132C77.58 35.9132 77.46 35.8535 77.38 35.754C77.28 35.6544 77.24 35.4952 77.24 35.2961ZM82.16 35.2762L81.94 34.6591H80.08L79.86 35.2762C79.76 35.5151 79.7 35.6942 79.64 35.7739C79.58 35.8535 79.48 35.9132 79.34 35.9132C79.22 35.9132 79.12 35.8535 79.02 35.7739C78.94 35.6743 78.88 35.5748 78.88 35.4554C78.88 35.3956 78.9 35.316 78.92 35.2563C78.94 35.1767 78.98 35.0771 79.02 34.9577L80.2 31.7725C80.24 31.6929 80.28 31.5734 80.32 31.454C80.36 31.3146 80.42 31.2151 80.48 31.1354C80.52 31.0359 80.6 30.9762 80.68 30.9165C80.76 30.8767 80.88 30.8368 81 30.8368C81.14 30.8368 81.24 30.8767 81.32 30.9165C81.42 30.9762 81.48 31.0359 81.54 31.1155C81.6 31.2151 81.64 31.2947 81.68 31.3942C81.72 31.4938 81.76 31.6132 81.82 31.7725L83.02 34.9179C83.12 35.1767 83.16 35.3359 83.16 35.4554C83.16 35.5549 83.12 35.6743 83.02 35.754C82.94 35.8535 82.82 35.9132 82.7 35.9132C82.62 35.9132 82.56 35.8933 82.52 35.8535C82.46 35.8336 82.42 35.7938 82.38 35.754C82.34 35.6942 82.3 35.6345 82.26 35.535C82.22 35.4354 82.2 35.3359 82.16 35.2762ZM80.32 33.9026H81.7L81 31.8919L80.32 33.9026Z" fill="#222222"/>
</svg>
