<svg width="24" height="24" viewBox="0 0 24 24" fill="none" xmlns="http://www.w3.org/2000/svg">
<path d="M16.8372 5.84445L16.8435 16.2127C16.8442 17.4828 16.3404 18.7013 15.4428 19.6C14.5452 20.4987 13.3273 21.004 12.0571 21.0048C10.7869 21.0056 9.56848 20.5017 8.66978 19.6041C7.77108 18.7065 7.26576 17.4887 7.26499 16.2185L7.2587 5.85026C7.25819 5.00347 7.59408 4.19116 8.19249 3.59202C8.7909 2.99289 9.6028 2.65601 10.4496 2.6555C11.2964 2.65499 12.1087 2.99088 12.7078 3.58929C13.307 4.18769 13.6438 4.9996 13.6444 5.84639L13.645 16.2202C13.6453 16.6436 13.4773 17.0498 13.1781 17.3494C12.8789 17.6489 12.473 17.8174 12.0496 17.8176C11.6262 17.8179 11.22 17.6499 10.9204 17.3507C10.6209 17.0515 10.4524 16.6456 10.4522 16.2222L10.452 6.64935" stroke="#1B1D28" stroke-width="1.5" stroke-linecap="round" stroke-linejoin="round"/>
</svg>
