<svg width="24" height="24" viewBox="0 0 24 24" fill="none" xmlns="http://www.w3.org/2000/svg">
<path d="M12 14C13.1046 14 14 13.1046 14 12C14 10.8954 13.1046 10 12 10C10.8954 10 10 10.8954 10 12C10 13.1046 10.8954 14 12 14Z" stroke="#1B1D28" stroke-width="2" stroke-linecap="round" stroke-linejoin="round"/>
<path d="M4.92982 19.0699C3.05511 17.1947 2.00195 14.6516 2.00195 11.9999C2.00195 9.34829 3.05511 6.80521 4.92982 4.92993M16.2398 7.75993C16.7977 8.31717 17.2402 8.9789 17.5422 9.70729C17.8441 10.4357 17.9995 11.2164 17.9995 12.0049C17.9995 12.7934 17.8441 13.5742 17.5422 14.3026C17.2402 15.031 16.7977 15.6927 16.2398 16.2499V7.75993ZM7.75982 16.2399C7.20196 15.6827 6.75941 15.021 6.45746 14.2926C6.15551 13.5642 6.0001 12.7834 6.0001 11.9949C6.0001 11.2064 6.15551 10.4257 6.45746 9.69729C6.75941 8.9689 7.20196 8.30717 7.75982 7.74993V16.2399ZM19.0698 4.92993C20.9445 6.80521 21.9977 9.34829 21.9977 11.9999C21.9977 14.6516 20.9445 17.1947 19.0698 19.0699V4.92993Z" stroke="#1B1D28" stroke-width="2" stroke-linecap="round" stroke-linejoin="round"/>
</svg>
